<svg width="128" height="128" viewBox="0 0 128 128" fill="none" xmlns="http://www.w3.org/2000/svg">
<path d="M29.3594 82.3202C32.4924 86.2482 48.588 87.449 56.2087 76.8457" stroke="#D9D9D9" stroke-width="5" stroke-miterlimit="10" stroke-linecap="round"/>
<path d="M98.3971 82.3202C95.2642 86.2482 79.1686 87.449 71.5479 76.8457" stroke="#D9D9D9" stroke-width="5" stroke-miterlimit="10" stroke-linecap="round"/>
<path d="M66.8395 87.6925C65.2103 86.536 63.0491 86.5047 61.4513 87.5827C59.6816 88.7863 58.945 90.8027 59.6031 92.9439C60.4174 95.6013 62.0937 97.7268 64.0673 99.9778C65.9782 97.7582 67.6545 95.6484 68.5001 93.0066C69.1582 90.9589 68.4688 88.849 66.8395 87.6925ZM64.0516 93.8352C62.8145 93.8352 61.7807 92.7571 61.7964 91.4594C61.7964 90.1624 62.8302 89.1621 64.1301 89.2084C65.3522 89.2398 66.3696 90.2715 66.3696 91.4751C66.3696 92.6787 65.273 93.8352 64.0516 93.8352Z" fill="#D9D9D9"/>
<path d="M99.2591 50.7447C97.9257 50.7447 96.6722 50.2256 95.7296 49.283L89.8095 43.3628L83.8893 49.283C82.9467 50.2256 81.6932 50.7447 80.3599 50.7447C79.0265 50.7447 77.7738 50.2256 76.8305 49.283C74.8846 47.3372 74.8846 44.1707 76.8305 42.2241L82.7506 36.304L76.8305 30.3838C74.8846 28.438 74.8846 25.2715 76.8305 23.325C77.7731 22.3824 79.0265 21.8633 80.3599 21.8633C81.6932 21.8633 82.9467 22.3824 83.8893 23.325L89.8095 29.2451L95.7296 23.325C96.6722 22.3824 97.9257 21.8633 99.2591 21.8633C100.592 21.8633 101.846 22.3824 102.788 23.325C104.734 25.2708 104.734 28.4373 102.788 30.3838L96.8683 36.304L102.788 42.2241C104.734 44.17 104.734 47.3365 102.788 49.283C101.846 50.2256 100.592 50.7447 99.2591 50.7447Z" fill="#D9D9D9"/>
<path d="M73.0523 38.4409L73.5928 37.9005C73.4081 37.8534 73.2234 37.8064 73.0374 37.7607C72.9126 37.7294 72.7721 37.698 72.6466 37.6673C70.8512 37.2452 68.9938 36.9643 67.1193 36.8081C67.0259 36.8081 66.9325 36.8081 66.8384 36.7925C65.8858 36.714 64.9182 36.6677 63.95 36.6677C62.9817 36.6677 62.0762 36.7147 61.1557 36.7768C61.0623 36.7768 60.9838 36.7768 60.8904 36.7925C59.0016 36.9486 57.1435 37.2295 55.3482 37.636C55.2234 37.6673 55.0986 37.6987 54.9581 37.7294C54.0526 37.9483 53.1628 38.1821 52.2886 38.4638H52.2729C44.9973 29.2794 34.7712 23.1254 23.2026 21.0327C18.2378 20.1421 13.1483 22.4387 10.5408 26.7653C5.6075 34.903 3 44.2435 3 53.7715C3 75.0607 16.2236 94.4133 36.0048 102.239C37.4565 103.738 39.0337 105.159 40.7513 106.44C41.3916 106.925 42.141 107.158 42.8904 107.158C43.9834 107.158 45.0451 106.659 45.7474 105.722C46.9339 104.145 46.6059 101.895 45.0294 100.708C37.6447 95.1627 33.1641 86.9474 32.4611 77.8571C32.4625 77.8593 32.4639 77.8614 32.4654 77.8636C32.4012 77.0443 32.3684 76.2165 32.3684 75.3808C32.3684 68.0289 34.8939 61.2653 39.1263 55.9062C39.1214 55.9084 39.1171 55.9098 39.1121 55.912C42.5624 51.5077 47.1684 48.0552 52.4455 45.9782C53.3196 45.6346 54.1938 45.3379 55.0836 45.072C55.1307 45.072 55.177 45.0406 55.2084 45.0406C60.0505 43.6509 65.1835 43.4506 70.114 44.4289C70.3942 42.2385 71.3732 40.1208 73.0523 38.4424V38.4409ZM25.2318 75.4193H25.2161C25.2161 80.3235 26.1217 85.0721 27.8393 89.4764C16.9259 81.0885 10.1501 67.922 10.1501 53.7708C10.1501 45.5397 12.3983 37.4955 16.645 30.4823C17.738 28.6705 19.8771 27.7022 21.9377 28.0766C31.1334 29.7322 39.3303 34.4181 45.4187 41.4156C33.3973 48.0068 25.2318 60.7683 25.2318 75.4186V75.4193Z" fill="#D9D9D9"/>
<path d="M117.473 26.7606H117.504C115.385 23.2654 111.656 21.0956 107.691 20.8604C109.321 23.1527 109.906 25.9648 109.443 28.6301C110.223 29.0579 110.901 29.6875 111.384 30.4782C115.631 37.4914 117.878 45.535 117.878 53.7667C117.878 68.027 111.025 81.2413 100.002 89.6285H99.9866C101.735 85.1772 102.672 80.3814 102.672 75.4153C102.672 68.3101 100.75 61.6477 97.3998 55.9193C95.3477 55.5478 93.459 54.5646 91.9531 53.0587L89.814 50.9196L87.675 53.0587C87.4318 53.3018 87.1787 53.5314 86.9163 53.7468C87.5445 54.4141 88.1448 55.1086 88.7145 55.8288C88.6974 55.8216 88.6796 55.8152 88.6618 55.8088C92.9384 61.1821 95.4932 67.9807 95.4932 75.3754C95.4932 76.2787 95.4547 77.1729 95.3798 78.057C95.3798 78.0563 95.3805 78.0556 95.3812 78.0549C94.6475 87.0203 90.2133 95.1423 82.922 100.64C81.3455 101.828 81.0332 104.077 82.2197 105.654C83.4061 107.231 85.6543 107.544 87.2315 106.357C88.8707 105.123 90.3695 103.78 91.7598 102.343C111.666 94.5647 124.999 75.1814 124.999 53.7674C124.999 44.2237 122.392 34.8996 117.474 26.7613L117.473 26.7606Z" fill="#D9D9D9"/>
</svg>
