<svg width="99" height="70" viewBox="0 0 99 70" fill="none" xmlns="http://www.w3.org/2000/svg">
<g clip-path="url(#clip0_1772_19826)">
<path d="M51.9188 48.291C50.6278 47.4069 48.881 47.4448 47.5647 48.3795C46.2483 49.3142 45.6914 51.0194 46.223 52.6741C46.9065 54.8087 48.2608 56.514 49.805 58.3076C51.3999 56.4887 52.7542 54.7708 53.4124 52.6235C53.944 50.9057 53.3491 49.2636 51.9188 48.291ZM49.8177 53.3435C48.8304 53.3435 47.9444 52.4467 47.9444 51.4362C47.9444 50.4636 48.7545 49.63 49.7544 49.6047C50.805 49.5794 51.6277 50.3752 51.6403 51.4236C51.6403 52.4593 50.8176 53.3309 49.8177 53.3435Z" fill="#016E7F"/>
<path d="M92.8641 4.80181C90.7376 1.30297 86.6113 -0.553819 82.5989 0.16616C73.2198 1.84611 64.9292 6.83543 59.0309 14.2752C58.3221 14.0478 57.588 13.8584 56.8665 13.6815C56.7652 13.6563 56.664 13.631 56.5501 13.6058C55.0818 13.2773 53.5882 13.0374 52.0567 12.9237C51.9808 12.9237 51.9175 12.9237 51.8415 12.911C51.0947 12.8605 50.3353 12.8226 49.5759 12.8226C48.8164 12.8226 48.0063 12.8605 47.2216 12.9237C47.1583 12.9237 47.0824 12.9237 47.0191 12.9363C45.4875 13.0626 43.9813 13.29 42.513 13.631C42.4118 13.6563 42.3105 13.6815 42.2093 13.6942C41.4878 13.871 40.7663 14.0605 40.0575 14.2878C40.0449 14.2878 40.0195 14.2878 40.0069 14.3005C34.0959 6.83543 25.8053 1.84611 16.4135 0.153529C12.3885 -0.56645 8.27486 1.29034 6.14842 4.78918C2.14869 11.37 0.0349121 18.9235 0.0349121 26.6285C0.0349121 43.9459 10.8316 59.6212 26.9825 65.9116C28.109 67.0736 29.3367 68.1599 30.6531 69.1578C31.9315 70.1177 33.7541 69.8651 34.7161 68.5894C35.6781 67.3136 35.4249 65.5074 34.1465 64.5348C27.666 59.6591 23.9573 52.2193 23.9573 44.1354C23.9573 43.6049 23.9827 43.0743 24.0206 42.5565C26.3622 40.3081 29.4253 39.0576 32.6783 39.0576C35.9312 39.0576 39.1462 40.3586 41.5131 42.708C42.6396 43.8322 44.4749 43.8322 45.6141 42.708C46.7406 41.5839 46.7406 39.7523 45.6141 38.6155C42.1586 35.1672 37.564 33.2599 32.6783 33.2599C30.286 33.2599 27.9571 33.7273 25.8053 34.5988C28.4254 28.119 33.6529 22.9402 40.1714 20.3634C40.8676 20.0856 41.5891 19.8456 42.3105 19.6308C42.3485 19.6308 42.3738 19.6056 42.4118 19.6056C47.0444 18.2667 52.0061 18.254 56.6387 19.5803C56.6766 19.5803 56.7146 19.6056 56.7399 19.6056C57.4614 19.8203 58.1702 20.0603 58.879 20.3382C63.1572 22.0181 66.8785 24.8096 69.6758 28.3716C68.2834 27.8032 66.7646 27.4874 65.1697 27.4874C58.5752 27.4874 53.1959 32.8431 53.1959 39.4366C53.1959 46.03 58.5626 51.3857 65.1697 51.3857C69.2834 51.3857 72.9287 49.3015 75.0805 46.1311C74.5235 53.4698 70.8909 60.1265 64.9039 64.6105C63.6255 65.5705 63.3597 67.3768 64.3217 68.6652C64.8913 69.423 65.7646 69.8272 66.638 69.8272C67.2455 69.8272 67.8531 69.6378 68.3721 69.2462C69.7644 68.2104 71.0428 67.061 72.2199 65.8484C88.2441 59.5202 98.9776 43.8701 98.9776 26.6538C98.9776 18.9488 96.8638 11.3953 92.8767 4.81444L92.8641 4.80181ZM18.1603 44.1354C18.1603 48.1521 18.9197 52.0299 20.3373 55.6298C11.4012 48.8594 5.84465 38.1608 5.84465 26.6285C5.84465 19.9719 7.66731 13.4668 11.1101 7.7954C11.9961 6.33019 13.7302 5.54705 15.401 5.8502C22.8688 7.18911 29.5266 10.9911 34.4756 16.6751C24.7674 22.0055 18.1729 32.3252 18.1729 44.1354H18.1603ZM65.1697 45.588C61.7649 45.588 58.9929 42.8217 58.9929 39.4239C58.9929 36.0261 61.7649 33.2599 65.1697 33.2599C68.5746 33.2599 71.3465 36.0261 71.3465 39.4239C71.3465 42.8217 68.5746 45.588 65.1697 45.588ZM78.8397 55.5034C80.2193 51.9414 80.9661 48.1016 80.9661 44.1354C80.9661 32.2873 74.3463 21.955 64.6002 16.6372C69.5365 10.9785 76.1816 7.18911 83.6368 5.8502C85.3076 5.54705 87.029 6.33019 87.9277 7.7954C91.3705 13.4668 93.1931 19.9719 93.1931 26.6285C93.1931 38.0724 87.6999 48.7205 78.8523 55.5034H78.8397Z" fill="#016E7F"/>
<path d="M65.1698 36.1641C63.3472 36.1641 61.8789 37.6293 61.8789 39.4482C61.8789 41.2671 63.3472 42.7323 65.1698 42.7323C66.9925 42.7323 68.4607 41.2671 68.4607 39.4482C68.4607 37.6293 66.9925 36.1641 65.1698 36.1641Z" fill="#016E7F"/>
</g>
<defs>
<clipPath id="clip0_1772_19826">
<rect width="98.93" height="69.8" fill="white" transform="translate(0.0349121)"/>
</clipPath>
</defs>
</svg>
